<svg xmlns="http://www.w3.org/2000/svg" xmlns:xlink="http://www.w3.org/1999/xlink" width="500" zoomAndPan="magnify" viewBox="0 0 375 374.999991" height="500" preserveAspectRatio="xMidYMid meet" version="1.0"><defs><g/><clipPath id="83bea38fae"><rect x="0" width="303" y="0" height="55"/></clipPath><clipPath id="7338b249cb"><rect x="0" width="100" y="0" height="131"/></clipPath></defs><g transform="matrix(1, 0, 0, 1, 24, 201)"><g clip-path="url(#83bea38fae)"><g fill="#bc892f" fill-opacity="1"><g transform="translate(1.311353, 40.404945)"><g/></g></g><g fill="#bc892f" fill-opacity="1"><g transform="translate(14.822196, 40.404945)"><g/></g></g><g fill="#bc892f" fill-opacity="1"><g transform="translate(28.34009, 40.404945)"><g><path d="M 3.15625 0 L 3.15625 -38.625 L 11.5 -38.625 L 29.3125 -8.34375 L 29.421875 -8.34375 L 29.421875 -38.625 L 36.015625 -38.625 L 36.015625 0 L 27.671875 0 L 9.8125 -30.1875 L 9.703125 -30.1875 L 9.703125 0 Z M 3.15625 0 "/></g></g></g><g fill="#bc892f" fill-opacity="1"><g transform="translate(67.510629, 40.404945)"><g><path d="M 0.4375 0 L 14.921875 -38.625 L 23.203125 -38.625 L 37.59375 0 L 30.453125 0 L 27.453125 -8.4375 L 10.625 -8.4375 L 7.578125 0 Z M 12.09375 -13.734375 L 25.9375 -13.734375 L 19.125 -32.75 L 19.015625 -32.75 Z M 12.09375 -13.734375 "/></g></g></g><g fill="#bc892f" fill-opacity="1"><g transform="translate(105.537112, 40.404945)"><g><path d="M 14.171875 0 L 14.171875 -14 L 0.4375 -38.625 L 7.6875 -38.625 L 17.546875 -20.15625 L 17.65625 -20.15625 L 27.140625 -38.625 L 34.546875 -38.625 L 20.921875 -14 L 20.921875 0 Z M 14.171875 0 "/></g></g></g><g fill="#bc892f" fill-opacity="1"><g transform="translate(140.45827, 40.404945)"><g><path d="M 3.15625 0 L 3.15625 -38.625 L 12.3125 -38.625 L 25.125 -7.515625 L 25.171875 -7.515625 L 37.921875 -38.625 L 47.078125 -38.625 L 47.078125 0 L 40.640625 0 L 40.640625 -29.6875 L 40.53125 -29.6875 L 28.171875 0 L 22.0625 0 L 9.640625 -29.640625 L 9.53125 -29.640625 L 9.53125 0 Z M 3.15625 0 "/></g></g></g><g fill="#bc892f" fill-opacity="1"><g transform="translate(190.688093, 40.404945)"><g><path d="M 3.15625 0 L 3.15625 -38.625 L 29.90625 -38.625 L 29.90625 -32.96875 L 9.703125 -32.96875 L 9.703125 -22.453125 L 27.734375 -22.453125 L 27.734375 -17.265625 L 9.703125 -17.265625 L 9.703125 -5.671875 L 30.453125 -5.671875 L 30.453125 0 Z M 3.15625 0 "/></g></g></g><g fill="#bc892f" fill-opacity="1"><g transform="translate(222.394978, 40.404945)"><g><path d="M 3.15625 0 L 3.15625 -38.625 L 9.921875 -38.625 L 9.921875 -5.890625 L 27.890625 -5.890625 L 27.890625 0 Z M 3.15625 0 "/></g></g></g><g fill="#bc892f" fill-opacity="1"><g transform="translate(250.996564, 40.404945)"><g><path d="M 3.15625 0 L 3.15625 -38.625 L 9.921875 -38.625 L 9.921875 0 Z M 3.15625 0 "/></g></g></g><g fill="#bc892f" fill-opacity="1"><g transform="translate(264.071553, 40.404945)"><g><path d="M 0.4375 0 L 14.921875 -38.625 L 23.203125 -38.625 L 37.59375 0 L 30.453125 0 L 27.453125 -8.4375 L 10.625 -8.4375 L 7.578125 0 Z M 12.09375 -13.734375 L 25.9375 -13.734375 L 19.125 -32.75 L 19.015625 -32.75 Z M 12.09375 -13.734375 "/></g></g></g></g></g><g transform="matrix(1, 0, 0, 1, 132, 79)"><g clip-path="url(#7338b249cb)"><g fill="#bc892f" fill-opacity="1"><g transform="translate(25.21893, 96.717562)"><g><path d="M 6.28125 -22.9375 C 6.445312 -22.90625 6.628906 -22.894531 6.828125 -22.90625 C 6.941406 -23.132812 7.054688 -23.382812 7.171875 -23.65625 C 7.296875 -23.925781 7.40625 -24.207031 7.5 -24.5 C 9.625 -29.882812 11.742188 -35.285156 13.859375 -40.703125 C 15.972656 -46.117188 18.085938 -51.519531 20.203125 -56.90625 C 21.453125 -60.09375 22.773438 -63.253906 24.171875 -66.390625 C 25.566406 -69.523438 27.210938 -72.546875 29.109375 -75.453125 C 29.585938 -76.265625 30.113281 -77.046875 30.6875 -77.796875 C 31.269531 -78.546875 31.875 -79.273438 32.5 -79.984375 C 33.789062 -81.523438 35.5 -82.503906 37.625 -82.921875 C 39.070312 -83.253906 40.175781 -83.179688 40.9375 -82.703125 C 41.695312 -82.234375 42.265625 -81.304688 42.640625 -79.921875 C 42.859375 -78.816406 42.953125 -77.765625 42.921875 -76.765625 C 42.816406 -74.703125 42.726562 -72.679688 42.65625 -70.703125 C 42.59375 -68.722656 42.445312 -66.707031 42.21875 -64.65625 C 41.59375 -59.46875 40.9375 -54.253906 40.25 -49.015625 C 39.5625 -43.773438 38.921875 -38.539062 38.328125 -33.3125 C 37.609375 -27.425781 37.015625 -21.535156 36.546875 -15.640625 C 36.078125 -9.742188 35.859375 -3.828125 35.890625 2.109375 C 35.898438 3.910156 35.984375 5.726562 36.140625 7.5625 C 36.304688 9.394531 36.441406 11.226562 36.546875 13.0625 C 36.585938 13.34375 36.65625 13.628906 36.75 13.921875 C 36.851562 14.210938 36.976562 14.566406 37.125 14.984375 C 37.570312 14.972656 38.007812 14.972656 38.4375 14.984375 C 38.875 14.992188 39.304688 14.972656 39.734375 14.921875 C 39.742188 15.085938 39.742188 15.234375 39.734375 15.359375 C 39.722656 15.484375 39.675781 15.582031 39.59375 15.65625 C 39.445312 15.957031 39.210938 16.207031 38.890625 16.40625 C 37.492188 17.539062 36.238281 17.953125 35.125 17.640625 C 34.019531 17.335938 33.191406 16.351562 32.640625 14.6875 C 32.304688 13.6875 32.046875 12.648438 31.859375 11.578125 C 31.671875 10.503906 31.53125 9.445312 31.4375 8.40625 C 30.914062 3.257812 30.660156 -1.878906 30.671875 -7.015625 C 30.691406 -12.160156 30.90625 -17.296875 31.3125 -22.421875 C 31.65625 -26.921875 32.097656 -31.398438 32.640625 -35.859375 C 33.191406 -40.316406 33.722656 -44.796875 34.234375 -49.296875 C 34.609375 -52.253906 34.984375 -55.1875 35.359375 -58.09375 C 35.742188 -61.007812 36.09375 -63.960938 36.40625 -66.953125 C 36.53125 -68.347656 36.609375 -69.753906 36.640625 -71.171875 C 36.679688 -72.597656 36.710938 -74.019531 36.734375 -75.4375 C 36.753906 -75.6875 36.738281 -75.957031 36.6875 -76.25 C 36.632812 -76.539062 36.582031 -76.851562 36.53125 -77.1875 C 35.832031 -76.84375 35.332031 -76.40625 35.03125 -75.875 C 34.726562 -75.34375 34.460938 -74.820312 34.234375 -74.3125 C 33.210938 -72.25 32.207031 -70.171875 31.21875 -68.078125 C 30.238281 -65.984375 29.300781 -63.878906 28.40625 -61.765625 C 25.894531 -55.546875 23.398438 -49.328125 20.921875 -43.109375 C 18.453125 -36.890625 15.972656 -30.671875 13.484375 -24.453125 C 12.648438 -22.421875 11.742188 -20.382812 10.765625 -18.34375 C 9.796875 -16.300781 8.820312 -14.257812 7.84375 -12.21875 C 7.550781 -11.5625 7.203125 -10.9375 6.796875 -10.34375 C 6.390625 -9.757812 5.863281 -9.3125 5.21875 -9 C 4.75 -8.75 4.257812 -8.519531 3.75 -8.3125 C 3.238281 -8.113281 2.742188 -7.984375 2.265625 -7.921875 C 0.304688 -7.578125 -0.71875 -8.375 -0.8125 -10.3125 C -0.882812 -12.195312 -0.8125 -14.082031 -0.59375 -15.96875 C -0.0820312 -19.863281 0.425781 -23.75 0.9375 -27.625 C 1.457031 -31.5 1.984375 -35.351562 2.515625 -39.1875 C 2.585938 -39.832031 2.644531 -40.476562 2.6875 -41.125 C 2.726562 -41.769531 2.679688 -42.4375 2.546875 -43.125 C 2.429688 -42.894531 2.304688 -42.644531 2.171875 -42.375 C 2.035156 -42.101562 1.910156 -41.820312 1.796875 -41.53125 C 0.679688 -38.082031 -0.359375 -34.617188 -1.328125 -31.140625 C -2.304688 -27.671875 -2.921875 -24.132812 -3.171875 -20.53125 C -3.171875 -20.382812 -3.1875 -20.238281 -3.21875 -20.09375 C -3.257812 -19.957031 -3.3125 -19.851562 -3.375 -19.78125 C -3.519531 -19.632812 -3.6875 -19.492188 -3.875 -19.359375 C -4.0625 -19.222656 -4.242188 -19.125 -4.421875 -19.0625 C -4.515625 -19.03125 -4.664062 -19.066406 -4.875 -19.171875 C -5.082031 -19.285156 -5.207031 -19.40625 -5.25 -19.53125 C -5.4375 -20.070312 -5.625 -20.625 -5.8125 -21.1875 C -6 -21.757812 -6.109375 -22.316406 -6.140625 -22.859375 C -6.148438 -24.066406 -6.113281 -25.257812 -6.03125 -26.4375 C -5.945312 -27.625 -5.800781 -28.8125 -5.59375 -30 C -4.882812 -34.207031 -3.941406 -38.359375 -2.765625 -42.453125 C -1.597656 -46.546875 -0.300781 -50.597656 1.125 -54.609375 C 1.414062 -55.359375 1.765625 -56.101562 2.171875 -56.84375 C 3.015625 -58.226562 4.234375 -59.109375 5.828125 -59.484375 C 8.015625 -60.023438 9.269531 -59.21875 9.59375 -57.0625 C 9.789062 -55.707031 9.84375 -54.410156 9.75 -53.171875 C 9.644531 -51.679688 9.535156 -50.203125 9.421875 -48.734375 C 9.316406 -47.265625 9.160156 -45.789062 8.953125 -44.3125 C 8.597656 -41.320312 8.210938 -38.335938 7.796875 -35.359375 C 7.378906 -32.378906 6.972656 -29.382812 6.578125 -26.375 C 6.515625 -25.800781 6.453125 -25.222656 6.390625 -24.640625 C 6.328125 -24.066406 6.289062 -23.5 6.28125 -22.9375 Z M 6.28125 -22.9375 "/></g></g></g></g></g></svg>