<svg xmlns="http://www.w3.org/2000/svg" xmlns:xlink="http://www.w3.org/1999/xlink" width="500" zoomAndPan="magnify" viewBox="0 0 375 374.999991" height="500" preserveAspectRatio="xMidYMid meet" version="1.0"><defs><g/><clipPath id="94914ccfca"><rect x="0" width="291" y="0" height="372"/></clipPath></defs><g transform="matrix(1, 0, 0, 1, 44, 3)"><g clip-path="url(#94914ccfca)"><g fill="#a97922" fill-opacity="1"><g transform="translate(73.753119, 279.375806)"><g><path d="M 18.28125 -66.765625 C 18.769531 -66.628906 19.296875 -66.582031 19.859375 -66.625 C 20.210938 -67.332031 20.550781 -68.070312 20.875 -68.84375 C 21.207031 -69.613281 21.523438 -70.414062 21.828125 -71.25 C 28.003906 -86.9375 34.164062 -102.65625 40.3125 -118.40625 C 46.457031 -134.164062 52.613281 -149.890625 58.78125 -165.578125 C 62.40625 -174.847656 66.242188 -184.039062 70.296875 -193.15625 C 74.347656 -202.28125 79.140625 -211.0625 84.671875 -219.5 C 86.066406 -221.875 87.609375 -224.148438 89.296875 -226.328125 C 90.992188 -228.503906 92.734375 -230.625 94.515625 -232.6875 C 98.285156 -237.175781 103.265625 -240.015625 109.453125 -241.203125 C 113.679688 -242.179688 116.90625 -241.976562 119.125 -240.59375 C 121.34375 -239.207031 122.976562 -236.5 124.03125 -232.46875 C 124.65625 -229.3125 124.945312 -226.265625 124.90625 -223.328125 C 124.550781 -217.347656 124.28125 -211.46875 124.09375 -205.6875 C 123.914062 -199.914062 123.503906 -194.066406 122.859375 -188.140625 C 121.023438 -173.023438 119.109375 -157.847656 117.109375 -142.609375 C 115.117188 -127.367188 113.234375 -112.125 111.453125 -96.875 C 109.410156 -79.78125 107.707031 -62.660156 106.34375 -45.515625 C 104.988281 -28.367188 104.347656 -11.160156 104.421875 6.109375 C 104.429688 11.367188 104.671875 16.664062 105.140625 22 C 105.609375 27.34375 106.003906 32.675781 106.328125 38 C 106.460938 38.832031 106.671875 39.675781 106.953125 40.53125 C 107.242188 41.382812 107.585938 42.398438 107.984375 43.578125 C 109.296875 43.578125 110.578125 43.585938 111.828125 43.609375 C 113.078125 43.628906 114.335938 43.578125 115.609375 43.453125 C 115.617188 43.890625 115.609375 44.289062 115.578125 44.65625 C 115.554688 45.03125 115.441406 45.332031 115.234375 45.5625 C 114.785156 46.425781 114.082031 47.171875 113.125 47.796875 C 109.09375 51.046875 105.457031 52.222656 102.21875 51.328125 C 98.988281 50.429688 96.5625 47.550781 94.9375 42.6875 C 93.96875 39.789062 93.21875 36.78125 92.6875 33.65625 C 92.15625 30.539062 91.75 27.492188 91.46875 24.515625 C 89.957031 9.484375 89.222656 -5.503906 89.265625 -20.453125 C 89.304688 -35.410156 89.910156 -50.335938 91.078125 -65.234375 C 92.109375 -78.316406 93.414062 -91.34375 95 -104.3125 C 96.59375 -117.289062 98.125 -130.332031 99.59375 -143.4375 C 100.675781 -151.988281 101.769531 -160.515625 102.875 -169.015625 C 103.988281 -177.523438 105 -186.101562 105.90625 -194.75 C 106.289062 -198.84375 106.523438 -202.953125 106.609375 -207.078125 C 106.691406 -211.210938 106.773438 -215.34375 106.859375 -219.46875 C 106.898438 -220.207031 106.851562 -220.992188 106.71875 -221.828125 C 106.59375 -222.671875 106.441406 -223.570312 106.265625 -224.53125 C 104.242188 -223.570312 102.789062 -222.320312 101.90625 -220.78125 C 101.03125 -219.238281 100.269531 -217.703125 99.625 -216.171875 C 96.632812 -210.191406 93.707031 -204.15625 90.84375 -198.0625 C 87.976562 -191.96875 85.234375 -185.847656 82.609375 -179.703125 C 75.347656 -161.597656 68.117188 -143.503906 60.921875 -125.421875 C 53.722656 -107.347656 46.492188 -89.257812 39.234375 -71.15625 C 36.828125 -65.21875 34.195312 -59.28125 31.34375 -53.34375 C 28.5 -47.414062 25.65625 -41.476562 22.8125 -35.53125 C 21.976562 -33.65625 20.96875 -31.859375 19.78125 -30.140625 C 18.59375 -28.421875 17.054688 -27.101562 15.171875 -26.1875 C 13.816406 -25.425781 12.390625 -24.757812 10.890625 -24.1875 C 9.398438 -23.625 7.957031 -23.25 6.5625 -23.0625 C 0.882812 -22.050781 -2.082031 -24.351562 -2.34375 -29.96875 C -2.582031 -35.457031 -2.375 -40.945312 -1.71875 -46.4375 C -0.238281 -57.769531 1.25 -69.070312 2.75 -80.34375 C 4.25 -91.613281 5.757812 -102.847656 7.28125 -114.046875 C 7.539062 -115.890625 7.722656 -117.742188 7.828125 -119.609375 C 7.929688 -121.472656 7.789062 -123.4375 7.40625 -125.5 C 7.039062 -124.800781 6.664062 -124.054688 6.28125 -123.265625 C 5.894531 -122.472656 5.539062 -121.660156 5.21875 -120.828125 C 1.976562 -110.804688 -1.054688 -100.742188 -3.890625 -90.640625 C -6.734375 -80.535156 -8.519531 -70.234375 -9.25 -59.734375 C -9.238281 -59.296875 -9.273438 -58.878906 -9.359375 -58.484375 C -9.453125 -58.097656 -9.613281 -57.789062 -9.84375 -57.5625 C -10.28125 -57.125 -10.757812 -56.707031 -11.28125 -56.3125 C -11.8125 -55.914062 -12.335938 -55.628906 -12.859375 -55.453125 C -13.128906 -55.367188 -13.570312 -55.476562 -14.1875 -55.78125 C -14.800781 -56.082031 -15.171875 -56.429688 -15.296875 -56.828125 C -15.828125 -58.410156 -16.367188 -60.023438 -16.921875 -61.671875 C -17.472656 -63.316406 -17.796875 -64.929688 -17.890625 -66.515625 C -17.890625 -70.023438 -17.769531 -73.503906 -17.53125 -76.953125 C -17.289062 -80.398438 -16.867188 -83.84375 -16.265625 -87.28125 C -14.222656 -99.53125 -11.492188 -111.609375 -8.078125 -123.515625 C -4.671875 -135.421875 -0.890625 -147.195312 3.265625 -158.84375 C 4.128906 -161.03125 5.160156 -163.203125 6.359375 -165.359375 C 8.796875 -169.410156 12.328125 -171.988281 16.953125 -173.09375 C 23.304688 -174.632812 26.957031 -172.265625 27.90625 -165.984375 C 28.46875 -162.078125 28.625 -158.328125 28.375 -154.734375 C 28.070312 -150.378906 27.757812 -146.054688 27.4375 -141.765625 C 27.113281 -137.484375 26.644531 -133.191406 26.03125 -128.890625 C 24.988281 -120.203125 23.867188 -111.519531 22.671875 -102.84375 C 21.472656 -94.164062 20.289062 -85.457031 19.125 -76.71875 C 18.945312 -75.050781 18.769531 -73.378906 18.59375 -71.703125 C 18.414062 -70.035156 18.3125 -68.390625 18.28125 -66.765625 Z M 18.28125 -66.765625 "/></g></g></g></g></g></svg>